# xmcd CD database file
#
# Track frame offsets:
#	150
#	14791
#	29315
#	44721
#	56090
#	71619
#	85678
#	99396
#	115910
#	129120
#	148027
#	164706
#	175364
#	190524
#	206360
#	220908
#	237818
#	256973
#	272031
#	288137
#
# Disc length: 4033 seconds
#
# Revision: 0
# Processed by: cddbd v1.5.2PL0 Copyright (c) Steve Scherf et al.
# Submitted via: ACXtractor (MTCDDB.DLL V2003.12.21)
#
DISCID=250fbf14
DTITLE=Celia Adams - Wildflower
DYEAR=2010
DGENRE=Country
TTITLE0=Wildflowers
TTITLE1=I Love You a Thousand Ways
TTITLE2=When You Fall in Love
TTITLE3=If I Could Only win Your Love
TTITLE4=My Mothers Wedding Band
TTITLE5=Do You Know
TTITLE6=One Little Song
TTITLE7=We Gotta Live With Stuff
TTITLE8=Honky Tonk Stardust Cowboy
TTITLE9=Love and Happiness
TTITLE10=Somewhere In The Middle
TTITLE11=Uncle Tony's Ute
TTITLE12=Honky Tonk Blues
TTITLE13=Wayfaring Stranger
TTITLE14=Crossfire - Kathryn Jones
TTITLE15=When I Fly/ Kathryn Jones
TTITLE16=Stepin' Up/ Kathryn Jones
TTITLE17=You're the One /Kathryn Jones
TTITLE18=No Place To Hide/ Kathryn Jones
TTITLE19=Oh Brother Come Home/ Kathryn Jones
EXTD=ID3G:   2 YEAR: 2010
EXTT0=
EXTT1=
EXTT2=
EXTT3=
EXTT4=
EXTT5=
EXTT6=
EXTT7=
EXTT8=
EXTT9=
EXTT10=
EXTT11=
EXTT12=
EXTT13=
EXTT14=
EXTT15=
EXTT16=
EXTT17=
EXTT18=
EXTT19=
PLAYORDER=
